<svg id="Ebene_1" data-name="Ebene 1" xmlns="http://www.w3.org/2000/svg" viewBox="0 0 47 52"><defs><style>.cls-1,.cls-2{fill:#fff;}.cls-1,.cls-2,.cls-3,.cls-4{stroke:gray;stroke-miterlimit:10;}.cls-1,.cls-3,.cls-4{stroke-width:2px;}.cls-2{stroke-width:2.05px;}.cls-3,.cls-4{fill:none;}.cls-3{stroke-linecap:square;}.cls-5{fill:#8a4e4e;}</style></defs><title>BowPad_Doc</title><polygon class="cls-1" points="46 1 10 1 10 51 34.36 51 46 39.24 46 1"/><path class="cls-2" d="M40.43,37.33" transform="translate(-4 -6)"/><path class="cls-2" d="M30.86,47.16" transform="translate(-4 -6)"/><line class="cls-3" x1="34" y1="49" x2="34" y2="39"/><line class="cls-4" x1="46" y1="39" x2="34" y2="39"/><ellipse class="cls-5" cx="20" cy="13.8" rx="5.91" ry="6.21"/><path class="cls-5" d="M18.66,13.93A27.49,27.49,0,0,0,6.87,10a1,1,0,0,0-1.16.66,26.29,26.29,0,0,0,0,18.72,1.06,1.06,0,0,0,.92.59,29.83,29.83,0,0,0,12-3.83,9.1,9.1,0,0,1-2.54-6.37A7.33,7.33,0,0,1,18.66,13.93Z" transform="translate(-4 -6)"/><path class="cls-5" d="M29.34,13.93A27.49,27.49,0,0,1,41.13,10a1,1,0,0,1,1.16.66,26.29,26.29,0,0,1,0,18.72,1.06,1.06,0,0,1-.92.59,29.83,29.83,0,0,1-12-3.83,9.1,9.1,0,0,0,2.54-6.37A7.33,7.33,0,0,0,29.34,13.93Z" transform="translate(-4 -6)"/></svg>