<svg xmlns="http://www.w3.org/2000/svg" viewBox="0 0 260.04 61.18"><defs><style>.cls-1{fill:#fff;}.cls-2{fill:gray;}.cls-3{fill:#b3b3b3;}.cls-4{fill:#8a4e4e;}.cls-5{fill:#a55655;}</style></defs><title>BowPad_v2</title><g id="Ebene_4" data-name="Ebene 4"><g id="Ebene_3" data-name="Ebene 3"><rect class="cls-1" x="7" y="4.18" width="44" height="56"/><path class="cls-2" d="M53,6V60H11V6H53m2-2H9V62H55V4Z" transform="translate(-3 -0.82)"/><rect class="cls-3" x="11.21" y="1.39" width="3.59" height="7.59"/><path class="cls-2" d="M17.59,2.41V9.59H14.41V2.41h3.18M18,2H14v8h4V2Z" transform="translate(-3 -0.82)"/><rect class="cls-1" x="11" y="3.66" width="4" height="1.19"/><rect class="cls-3" x="19.21" y="1.39" width="3.59" height="7.59"/><path class="cls-2" d="M25.59,2.41V9.59H22.41V2.41h3.18M26,2H22v8h4V2Z" transform="translate(-3 -0.82)"/><rect class="cls-1" x="19" y="3.66" width="4" height="1.19"/><rect class="cls-3" x="27.21" y="1.39" width="3.59" height="7.59"/><path class="cls-2" d="M33.59,2.41V9.59H30.41V2.41h3.18M34,2H30v8h4V2Z" transform="translate(-3 -0.82)"/><rect class="cls-1" x="27" y="3.66" width="4" height="1.19"/><rect class="cls-3" x="35.21" y="1.39" width="3.59" height="7.59"/><path class="cls-2" d="M41.59,2.41V9.59H38.41V2.41h3.18M42,2H38v8h4V2Z" transform="translate(-3 -0.82)"/><rect class="cls-1" x="35" y="3.66" width="4" height="1.19"/><rect class="cls-3" x="43.21" y="1.39" width="3.59" height="7.59"/><path class="cls-2" d="M49.59,2.41V9.59H46.41V2.41h3.18M50,2H46v8h4V2Z" transform="translate(-3 -0.82)"/><rect class="cls-1" x="43" y="3.66" width="4" height="1.19"/></g><ellipse class="cls-4" cx="29" cy="31.9" rx="8.57" ry="8.7"/><path class="cls-4" d="M24.26,24.5A40.78,40.78,0,0,0,7.16,19,1.41,1.41,0,0,0,5.48,20a35.65,35.65,0,0,0,0,26.21A1.53,1.53,0,0,0,6.82,47a44.37,44.37,0,0,0,17.44-5.37,12.54,12.54,0,0,1-3.69-8.91A10.16,10.16,0,0,1,24.26,24.5Z" transform="translate(-3 -0.82)"/><path class="cls-4" d="M39.74,24.5A40.78,40.78,0,0,1,56.84,19a1.41,1.41,0,0,1,1.68.92,35.65,35.65,0,0,1,0,26.21,1.53,1.53,0,0,1-1.34.83,44.37,44.37,0,0,1-17.44-5.37,12.54,12.54,0,0,0,3.69-8.91A10.16,10.16,0,0,0,39.74,24.5Z" transform="translate(-3 -0.82)"/></g><g id="Ebene_6" data-name="Ebene 6"><rect class="cls-1" x="247.72" y="0.68" width="10.56" height="13.55"/><path class="cls-2" d="M261,1.75V14.8H251v-13H261m.5-.5H250.47V15.3h11.06v-14Z" transform="translate(-3 -0.82)"/><polygon class="cls-3" points="248.57 1.91 248.62 0 249.52 0.05 249.47 1.91 248.57 1.91"/><path class="cls-2" d="M252.42.92V2.68h-.75V.92h.75m.1-.1h-1v2h1v-2Z" transform="translate(-3 -0.82)"/><rect class="cls-1" x="248.57" y="0.61" width="0.95" height="0.29"/><polygon class="cls-3" points="250.56 1.91 250.61 0 251.5 0.05 251.45 1.91 250.56 1.91"/><path class="cls-2" d="M254.4.92V2.68h-.74V.92h.74m.1-.1h-.94v2h.94v-2Z" transform="translate(-3 -0.82)"/><rect class="cls-1" x="250.56" y="0.61" width="0.95" height="0.29"/><polygon class="cls-3" points="252.54 1.91 252.59 0 253.49 0.05 253.44 1.91 252.54 1.91"/><path class="cls-2" d="M256.39.92V2.68h-.75V.92h.75m.1-.1h-1v2h1v-2Z" transform="translate(-3 -0.82)"/><rect class="cls-1" x="252.54" y="0.61" width="0.95" height="0.29"/><polygon class="cls-3" points="254.53 1.91 254.58 0 255.48 0.05 255.43 1.91 254.53 1.91"/><path class="cls-2" d="M258.38.92V2.68h-.75V.92h.75m.1-.1h-1v2h1v-2Z" transform="translate(-3 -0.82)"/><rect class="cls-1" x="254.53" y="0.61" width="0.95" height="0.29"/><polygon class="cls-3" points="256.52 1.91 256.57 0 257.47 0.05 257.42 1.91 256.52 1.91"/><path class="cls-2" d="M260.37.92V2.68h-.75V.92h.75m.1-.1h-1v2h1v-2Z" transform="translate(-3 -0.82)"/><rect class="cls-1" x="256.52" y="0.61" width="0.95" height="0.29"/><circle class="cls-5" cx="253" cy="7" r="1.88"/><path class="cls-5" d="M254.12,5.85A10,10,0,0,0,250,4.55a.34.34,0,0,0-.4.22,8.39,8.39,0,0,0,0,6.27.36.36,0,0,0,.32.2A11,11,0,0,0,254.12,10a3,3,0,0,1-.89-2.13A2.44,2.44,0,0,1,254.12,5.85Z" transform="translate(-3 -0.82)"/><path class="cls-5" d="M254.69,10.32a11.66,11.66,0,0,1-2.85,1.19A6.9,6.9,0,0,0,254,14.29a.32.32,0,0,0,.48-.16,32.82,32.82,0,0,0,1.73-3.47A2.88,2.88,0,0,1,254.69,10.32Z" transform="translate(-3 -0.82)"/><path class="cls-5" d="M257.88,5.85A10,10,0,0,1,262,4.55a.34.34,0,0,1,.4.22,8.39,8.39,0,0,1,0,6.27.36.36,0,0,1-.32.2A11,11,0,0,1,257.88,10a3,3,0,0,0,.89-2.13A2.44,2.44,0,0,0,257.88,5.85Z" transform="translate(-3 -0.82)"/><path class="cls-5" d="M257.31,10.32a11.66,11.66,0,0,0,2.85,1.19A6.9,6.9,0,0,1,258,14.29a.32.32,0,0,1-.48-.16,32.82,32.82,0,0,1-1.73-3.47A2.88,2.88,0,0,0,257.31,10.32Z" transform="translate(-3 -0.82)"/></g></svg>